<svg class="svg-icon" style="color:#1B4166; width: 1em; height: 1em;vertical-align: middle;fill: currentColor;overflow: hidden;" viewBox="0 0 1024 1024" version="1.1" xmlns="http://www.w3.org/2000/svg"><path d="M512 930.133333c-103.3728 0-192.733867-36.949333-265.6256-109.841066S136.533333 658.039467 136.533333 554.666667s36.9664-192.733867 109.841067-265.6256a381.9008 381.9008 0 0 1 78.728533-60.893867 34.133333 34.133333 0 0 1 34.1504 59.101867 313.617067 313.617067 0 0 0-64.6144 50.039466C234.1888 397.7728 204.8 468.872533 204.8 554.666667s29.3888 156.893867 89.838933 217.361066C355.106133 832.477867 426.205867 861.866667 512 861.866667s156.893867-29.3888 217.361067-89.838934C789.8112 711.560533 819.2 640.4608 819.2 554.666667s-29.3888-156.893867-89.838933-217.361067c-20.0704-20.053333-41.6256-36.9664-64.068267-50.210133a34.116267 34.116267 0 0 1-12.014933-46.7456 34.116267 34.116267 0 0 1 46.7456-12.014934c27.374933 16.162133 53.469867 36.590933 77.602133 60.706134C850.517333 361.9328 887.466667 451.293867 887.466667 554.666667s-36.949333 192.733867-109.841067 265.6256C704.733867 893.184 615.3728 930.133333 512 930.133333z m0.853333-512a34.133333 34.133333 0 0 1-34.133333-34.133333v-256a34.133333 34.133333 0 0 1 68.266667 0v256a34.133333 34.133333 0 0 1-34.133334 34.133333z"  /></svg>