<svg class="svg-icon" style="width: 1em;height: 1em;vertical-align: middle;fill: currentColor;overflow: hidden;" viewBox="0 0 1024 1024" version="1.1" xmlns="http://www.w3.org/2000/svg"><path d="M857.6 368.213333L810.666667 341.333333l46.933333-26.88a42.666667 42.666667 0 0 0-42.666667-74.24l-46.933333 27.306667V213.333333a42.666667 42.666667 0 0 0-85.333333 0v54.186667l-46.933334-27.306667a42.666667 42.666667 0 0 0-42.666666 74.24L640 341.333333l-46.933333 26.88a42.666667 42.666667 0 0 0 21.333333 79.786667 42.666667 42.666667 0 0 0 21.333333-5.546667l46.933334-27.306666V469.333333a42.666667 42.666667 0 0 0 85.333333 0V415.146667l46.933333 27.306666a42.666667 42.666667 0 0 0 58.026667-15.786666 42.666667 42.666667 0 0 0-15.36-58.453334z" fill="#309FFB" /><path d="M469.333333 554.666667V213.333333a128 128 0 0 0-256 0v341.333334a213.333333 213.333333 0 1 0 256 0z" fill="#BBDEFB" /><path d="M341.333333 938.666667a213.333333 213.333333 0 0 1-128-384V213.333333a128 128 0 0 1 256 0v341.333334a213.333333 213.333333 0 0 1-128 384zM341.333333 170.666667a42.666667 42.666667 0 0 0-42.666666 42.666666v364.373334a42.666667 42.666667 0 0 1-21.333334 37.12A128 128 0 0 0 213.333333 725.333333a128 128 0 0 0 256 0 128 128 0 0 0-64-110.506666 42.666667 42.666667 0 0 1-21.333333-37.12V213.333333a42.666667 42.666667 0 0 0-42.666667-42.666666z" fill="#486675" /><path d="M341.333333 725.333333m-85.333333 0a85.333333 85.333333 0 1 0 170.666667 0 85.333333 85.333333 0 1 0-170.666667 0Z" fill="#8AC8FB" /></svg>